{"title":"Gravity.2013.DVDSCR.XVID.AC3-MiLLENiUM","uid":9320993,"size":1470580302,"categoryP":"video","categoryS":"movies","magnet":"?xt=urn:btih:e2d6c75cf6defcfc6c2474c829f8258a6de9551b&amp;dn=Gravity.2013.DVDSCR.XVID.AC3-MiLLENiUM&amp;tr=udp%3A%2F%2Ftracker.openbittorrent.com%3A80&amp;tr=udp%3A%2F%2Fopen.demonii.com%3A1337&amp;tr=udp%3A%2F%2Ftracker.coppersurfer.tk%3A6969&amp;tr=udp%3A%2F%2Fexodus.desync.com%3A6969","seeders":1,"leechers":0,"uploader":"Acesn8s","files":-1,"time":1386551423,"description":"\n\nComplete name                            : Gravity.2013.DVDSCR.XVID.AC3-MiLLENiUM.avi\nsource                                   : THANKS BRO :) \nFormat                                   : AVI\nFormat/Info                              : Audio Video Interleave\nFile size                                : 1.34 GiB\nDuration                                 : 1h 30mn\nOverall bit rate                         : 2 104 Kbps\nWriting application                      : VirtualDubMod 1.5.10.2 (build 2540/release)\nWriting library                          : VirtualDubMod build 2540/release\n\nVideo\nID                                       : 0\nFormat                                   : MPEG-4 Visual\nFormat profile                           : Advanced Simple@L5\nFormat settings, BVOP                    : 2\nFormat settings, QPel                    : No\nFormat settings, GMC                     : No warppoints\nFormat settings, Matrix                  : Default (H.263)\nMuxing mode                              : Packed bitstream\nCodec ID                                 : XVID\nCodec ID/Hint                            : XviD\nDuration                                 : 1h 30mn\nBit rate                                 : 1 711 Kbps\nWidth                                    : 720 pixels\nHeight                                   : 304 pixels\nDisplay aspect ratio                     : 2.35:1\nFrame rate                               : 23.976 fps\nColor space                              : YUV\nChroma subsampling                       : 4:2:0\nBit depth                                : 8 bits\nScan type                                : Progressive\nCompression mode                         : Lossy\nBits/(Pixel*Frame)                       : 0.326\nStream size                              : 1.09 GiB (81%)\nWriting library                          : XviD 64\n\nAudio\nID                                       : 1\nFormat                                   : AC-3\nFormat/Info                              : Audio Coding 3\nMode extension                           : CM (complete main)\nCodec ID                                 : 2000\nDuration                                 : 1h 30mn\nBit rate mode                            : Constant\nBit rate                                 : 384 Kbps\nChannel(s)                               : 6 channels\nChannel positions                        : Front: L C R, Side: L R, LFE\nSampling rate                            : 48.0 KHz\nBit depth                                : 16 bits\nCompression mode                         : Lossy\nDelay relative to video                  : 31ms\nStream size                              : 250 MiB (18%)\nAlignment                                : Split accross interleaves\nInterleave, duration                     : 42 ms (1.00 video frame)\nInterleave, preload duration             : 500 ms\n &lt;a href=&quot;\nhttp://www.imdb.com/title/tt1454468/&quot; rel=&quot;nofollow&quot; target=&quot;_NEW&quot;&gt;\nhttp://www.imdb.com/title/tt1454468/&lt;/a&gt;\n\nSCREENS :\n\n","torrent":{"xt":"urn:btih:e2d6c75cf6defcfc6c2474c829f8258a6de9551b","amp;dn":"Gravity.2013.DVDSCR.XVID.AC3-MiLLENiUM","amp;tr":["udp%3A%2F%2Ftracker.openbittorrent.com%3A80","udp%3A%2F%2Fopen.demonii.com%3A1337","udp%3A%2F%2Ftracker.coppersurfer.tk%3A6969","udp%3A%2F%2Fexodus.desync.com%3A6969"],"infoHash":"e2d6c75cf6defcfc6c2474c829f8258a6de9551b","infoHashBuffer":{"type":"Buffer","data":[226,214,199,92,246,222,252,252,108,36,116,200,41,248,37,138,109,233,85,27]},"announce":[],"urlList":[]}}